<svg aria-hidden="true" style="position:absolute;width:0;height:0;overflow:hidden" xmlns="http://www.w3.org/2000/svg"><defs><symbol id="icon-construction" viewBox="0 0 32 32"><path d="m18.377 20.229 2.828-2.828 7.995 7.995-2.828 2.828-7.995-7.995zm4.956-6.896A4.672 4.672 0 0 0 28 8.666c0-.773-.213-1.493-.547-2.133l-3.6 3.6-1.987-1.987 3.6-3.6c-.64-.333-1.36-.547-2.133-.547a4.672 4.672 0 0 0-4.667 4.667c0 .547.107 1.067.28 1.547l-2.467 2.467-2.373-2.373.947-.947-1.88-1.88L16 4.653a4.001 4.001 0 0 0-5.654 0l-4.72 4.72 1.88 1.88h-3.76l-.947.947 4.72 4.72.947-.947V12.2l1.88 1.88.947-.947 2.373 2.373-9.88 9.88 2.827 2.827 15.173-15.16c.48.173 1 .28 1.547.28z"/></symbol><symbol id="icon-house" viewBox="0 0 32 32"><path d="M25.321 2.667H12.013a2.679 2.679 0 0 0-2.68 2.68v7.516l-6.269 6.189A1.335 1.335 0 0 0 4 21.333V28a1.335 1.335 0 0 0 1.334 1.334h21.333A1.33 1.33 0 0 0 28 28V5.345a2.677 2.677 0 0 0-2.679-2.679zM14.563 20.148v6.519H6.667v-7.424l3.983-3.932 3.913 4.004v.833zM17.333 12h-2.667V9.333h2.667V12zm5.334 10.667H20V20h2.667v2.667zm0-5.334H20v-2.667h2.667v2.667zm0-5.333H20V9.333h2.667V12z"/><path d="M9.333 20H12v2.667H9.333V20z"/></symbol><symbol id="icon-sofa" viewBox="0 0 34 32"><path d="M17.497 9.17a2.611 2.611 0 0 1 2.62-2.62h4.585a2.628 2.628 0 0 1 2.62 2.62v2.829c-1.52.537-2.62 1.978-2.62 3.681v2.659h-7.205v-9.17zm-8.515 6.497v2.672h7.205v-9.17a2.611 2.611 0 0 0-2.62-2.62H8.982a2.628 2.628 0 0 0-2.62 2.62v2.816c1.519.537 2.62 1.991 2.62 3.681zm19.204-2.528c-1.284.21-2.174 1.428-2.174 2.738v3.773H7.673v-3.93a2.623 2.623 0 0 0-2.62-2.62 2.623 2.623 0 0 0-2.62 2.62v6.55a2.628 2.628 0 0 0 2.62 2.62v2.62h2.62v-2.62h18.339v2.62h2.62v-2.62a2.628 2.628 0 0 0 2.62-2.62v-6.55a2.625 2.625 0 0 0-3.065-2.581z"/></symbol><symbol id="icon-pencil" viewBox="0 0 32 32"><path d="m21.653 15.347 2.093-2.093-5-5-2.093 2.093-5.52-5.507a2.671 2.671 0 0 0-3.773 0L4.827 7.373a2.671 2.671 0 0 0 0 3.773l5.507 5.507L4.001 23v5h5l6.347-6.347 5.507 5.507c1.267 1.267 2.973.8 3.773 0l2.533-2.533a2.671 2.671 0 0 0 0-3.773l-5.507-5.507zm-9.413-.587L6.72 9.253 9.24 6.72l1.693 1.693L9.36 10l1.88 1.88 1.587-1.587 1.933 1.933-2.52 2.533zm10.507 10.52-5.507-5.507 2.533-2.533 1.933 1.933-1.587 1.587 1.88 1.88 1.587-1.587 1.693 1.693-2.533 2.533zm4.866-15.893a1.323 1.323 0 0 0 .289-1.449 1.323 1.323 0 0 0-.289-.431l-3.12-3.12c-.627-.627-1.493-.387-1.88 0l-2.44 2.44 5 5 2.44-2.44z"/></symbol><symbol id="icon-check" viewBox="0 0 32 32"><path fill="#fff" style="fill:var(--color1, #fff)" d="M16 1.333C7.9 1.333 1.333 7.9 1.333 16S7.9 30.667 16 30.667 30.667 24.1 30.667 16 24.1 1.333 16 1.333zm6.357 12.187a1.342 1.342 0 0 0 .326-.982 1.33 1.33 0 0 0-.941-1.171 1.336 1.336 0 0 0-1.434.447l-5.733 6.879-2.967-2.968a1.333 1.333 0 0 0-1.885 1.885l4 4a1.332 1.332 0 0 0 1.966-.09l6.667-8z"/></symbol></defs></svg>